<?xml version="1.0" standalone="no"?>
<!DOCTYPE svg PUBLIC "-//W3C//DTD SVG 20010904//EN"
 "http://www.w3.org/TR/2001/REC-SVG-20010904/DTD/svg10.dtd">
<svg version="1.0" xmlns="http://www.w3.org/2000/svg"
 width="767.000000pt" height="766.000000pt" viewBox="0 0 767.000000 766.000000"
 preserveAspectRatio="xMidYMid meet">

<g transform="translate(0.000000,766.000000) scale(0.100000,-0.100000)"
fill="#000000" stroke="none">
<path d="M0 3830 l0 -3830 3835 0 3835 0 0 3830 0 3830 -3835 0 -3835 0 0
-3830z m5929 2034 c39 -49 30 -66 -101 -202 -68 -70 -449 -457 -848 -860 -399
-403 -729 -740 -733 -748 -12 -21 4 -44 132 -194 64 -75 188 -221 276 -325 88
-105 382 -451 655 -770 683 -800 679 -795 707 -843 23 -39 24 -44 9 -66 -8
-13 -34 -31 -58 -40 -39 -15 -116 -16 -763 -14 -809 3 -732 -4 -818 81 -23 23
-225 258 -447 522 -624 739 -670 794 -670 811 0 17 432 466 467 485 13 7 39
13 58 13 71 0 104 -34 593 -621 140 -167 253 -294 265 -297 12 -3 36 -6 54 -6
40 0 63 -23 63 -61 0 -62 -11 -69 -110 -69 -104 0 -94 -6 -216 140 -304 363
-608 710 -623 710 -16 0 -284 -260 -304 -295 -11 -21 -9 -25 178 -245 87 -102
297 -350 466 -551 170 -202 326 -382 347 -401 l39 -35 559 5 c350 3 564 8 572
14 24 20 12 55 -41 119 -30 35 -301 352 -602 704 -913 1066 -941 1098 -978
1151 -62 86 -65 80 171 318 114 116 209 213 212 216 3 3 256 258 563 566 380
383 557 568 557 582 0 11 -10 28 -22 36 -19 14 -79 16 -444 16 -232 0 -429 -3
-437 -6 -9 -3 -298 -294 -643 -647 -926 -947 -942 -962 -1008 -981 -30 -9 -77
-16 -105 -16 -92 0 -86 -62 -88 833 -2 566 -6 783 -14 793 -9 11 -75 14 -351
14 l-339 0 -24 -25 -25 -24 0 -1826 0 -1825 26 -10 c14 -6 168 -10 364 -10
307 0 340 2 359 18 21 17 21 20 23 712 l3 695 27 45 c15 26 425 443 991 1008
905 902 967 962 1000 962 36 0 60 -19 71 -56 6 -18 -64 -92 -461 -484 -257
-255 -690 -686 -960 -959 l-493 -495 0 -745 c0 -484 -4 -759 -10 -783 -7 -24
-24 -48 -47 -65 l-36 -28 -474 0 -473 0 -31 31 c-20 21 -34 47 -39 75 -5 24
-9 912 -10 1972 l0 1929 34 34 34 34 465 0 464 0 33 -22 c18 -13 43 -36 54
-51 21 -28 21 -38 26 -744 5 -670 6 -717 23 -727 19 -12 93 61 1022 1008 264
269 498 502 519 518 l39 28 653 0 653 0 20 -26z m-3515 -1019 l26 -17 0 -487
c0 -526 -3 -499 56 -539 18 -12 41 -42 53 -67 21 -44 21 -57 19 -372 l-3 -327
-72 -48 c-40 -26 -79 -61 -88 -77 -12 -25 -15 -75 -15 -275 0 -244 0 -245 26
-293 45 -83 17 -159 -68 -185 -32 -9 -45 -9 -73 5 -50 24 -68 58 -63 116 3 27
14 62 26 78 20 28 21 44 24 325 3 340 -6 308 111 385 l67 45 -2 286 -3 286
-62 44 -63 43 0 450 c0 396 -2 454 -16 481 -24 47 -34 88 -28 115 13 50 91 65
148 28z m2571 -2360 c29 -28 31 -42 9 -73 -14 -20 -24 -22 -100 -22 -77 0 -87
2 -109 25 -30 29 -31 49 -5 75 17 17 33 20 100 20 73 0 83 -3 105 -25z m237
-232 c10 -9 18 -28 18 -43 0 -46 -23 -55 -130 -55 -109 0 -140 14 -140 65 0
44 16 50 129 50 83 0 108 -3 123 -17z"/>
</g>
</svg>
